<mxfile host="app.diagrams.net" modified="2021-10-23T09:04:38.977Z" agent="5.0 (Windows NT 10.0; Win64; x64) AppleWebKit/537.36 (KHTML, like Gecko) Chrome/94.0.4606.81 Safari/537.36" etag="M-x4FXY39AAtWIQvpsm9" version="15.5.8" type="github">
  <diagram name="Page-1" id="e7e014a7-5840-1c2e-5031-d8a46d1fe8dd">
    <mxGraphModel dx="607" dy="761" grid="1" gridSize="10" guides="1" tooltips="1" connect="1" arrows="1" fold="1" page="1" pageScale="1" pageWidth="1169" pageHeight="826" background="none" math="0" shadow="0">
      <root>
        <mxCell id="0" />
        <mxCell id="1" parent="0" />
        <mxCell id="57VDPEn4nayjaTuC1rr9-57" value="Job seeker" style="shape=umlLifeline;perimeter=lifelinePerimeter;whiteSpace=wrap;html=1;container=1;collapsible=0;recursiveResize=0;outlineConnect=0;" vertex="1" parent="1">
          <mxGeometry x="380" y="80" width="100" height="460" as="geometry" />
        </mxCell>
        <mxCell id="57VDPEn4nayjaTuC1rr9-83" value="" style="html=1;points=[];perimeter=orthogonalPerimeter;" vertex="1" parent="57VDPEn4nayjaTuC1rr9-57">
          <mxGeometry x="45" y="245" width="10" height="80" as="geometry" />
        </mxCell>
        <mxCell id="57VDPEn4nayjaTuC1rr9-60" value="Recommender" style="shape=umlLifeline;perimeter=lifelinePerimeter;whiteSpace=wrap;html=1;container=1;collapsible=0;recursiveResize=0;outlineConnect=0;" vertex="1" parent="1">
          <mxGeometry x="740" y="80" width="100" height="460" as="geometry" />
        </mxCell>
        <mxCell id="57VDPEn4nayjaTuC1rr9-69" value="fork job seeker&#39;&#39;s repository" style="html=1;verticalAlign=bottom;endArrow=block;rounded=0;" edge="1" parent="57VDPEn4nayjaTuC1rr9-60">
          <mxGeometry width="80" relative="1" as="geometry">
            <mxPoint x="-125" y="150" as="sourcePoint" />
            <mxPoint x="45" y="150" as="targetPoint" />
          </mxGeometry>
        </mxCell>
        <mxCell id="57VDPEn4nayjaTuC1rr9-70" value="" style="html=1;points=[];perimeter=orthogonalPerimeter;" vertex="1" parent="57VDPEn4nayjaTuC1rr9-60">
          <mxGeometry x="45" y="140" width="10" height="80" as="geometry" />
        </mxCell>
        <mxCell id="57VDPEn4nayjaTuC1rr9-73" value="write job seekers&#39;s experience" style="html=1;verticalAlign=bottom;endArrow=open;dashed=1;endSize=8;rounded=0;" edge="1" parent="57VDPEn4nayjaTuC1rr9-60">
          <mxGeometry relative="1" as="geometry">
            <mxPoint x="39.5" y="214" as="sourcePoint" />
            <mxPoint x="-123" y="214" as="targetPoint" />
            <Array as="points">
              <mxPoint x="-40" y="214" />
            </Array>
          </mxGeometry>
        </mxCell>
        <mxCell id="57VDPEn4nayjaTuC1rr9-61" value="Check-Git-Out" style="shape=umlLifeline;perimeter=lifelinePerimeter;whiteSpace=wrap;html=1;container=1;collapsible=0;recursiveResize=0;outlineConnect=0;" vertex="1" parent="1">
          <mxGeometry x="560" y="80" width="100" height="460" as="geometry" />
        </mxCell>
        <mxCell id="57VDPEn4nayjaTuC1rr9-62" value="" style="html=1;points=[];perimeter=orthogonalPerimeter;" vertex="1" parent="57VDPEn4nayjaTuC1rr9-61">
          <mxGeometry x="45" y="80" width="10" height="40" as="geometry" />
        </mxCell>
        <mxCell id="57VDPEn4nayjaTuC1rr9-68" value="" style="html=1;points=[];perimeter=orthogonalPerimeter;" vertex="1" parent="57VDPEn4nayjaTuC1rr9-61">
          <mxGeometry x="45" y="140" width="10" height="130" as="geometry" />
        </mxCell>
        <mxCell id="57VDPEn4nayjaTuC1rr9-87" value="" style="html=1;points=[];perimeter=orthogonalPerimeter;" vertex="1" parent="57VDPEn4nayjaTuC1rr9-61">
          <mxGeometry x="45" y="300" width="10" height="120" as="geometry" />
        </mxCell>
        <mxCell id="57VDPEn4nayjaTuC1rr9-92" value="return resume&lt;br&gt;written with digital signature" style="html=1;verticalAlign=bottom;endArrow=open;dashed=1;endSize=8;rounded=0;" edge="1" parent="57VDPEn4nayjaTuC1rr9-61" target="57VDPEn4nayjaTuC1rr9-57">
          <mxGeometry x="-0.0616" relative="1" as="geometry">
            <mxPoint x="40" y="410" as="sourcePoint" />
            <mxPoint x="-40" y="410" as="targetPoint" />
            <mxPoint as="offset" />
          </mxGeometry>
        </mxCell>
        <mxCell id="57VDPEn4nayjaTuC1rr9-67" value="Make own resume" style="html=1;verticalAlign=bottom;endArrow=block;rounded=0;entryX=0;entryY=0.25;entryDx=0;entryDy=0;entryPerimeter=0;" edge="1" parent="1" target="57VDPEn4nayjaTuC1rr9-62">
          <mxGeometry width="80" relative="1" as="geometry">
            <mxPoint x="430" y="170" as="sourcePoint" />
            <mxPoint x="600" y="170" as="targetPoint" />
          </mxGeometry>
        </mxCell>
        <mxCell id="57VDPEn4nayjaTuC1rr9-82" value="Alert change of resume" style="html=1;verticalAlign=bottom;endArrow=block;rounded=0;exitX=0.2;exitY=0.923;exitDx=0;exitDy=0;exitPerimeter=0;" edge="1" parent="1">
          <mxGeometry x="-0.0372" width="80" relative="1" as="geometry">
            <mxPoint x="605" y="339.99" as="sourcePoint" />
            <mxPoint x="435" y="340" as="targetPoint" />
            <Array as="points">
              <mxPoint x="569" y="340" />
            </Array>
            <mxPoint as="offset" />
          </mxGeometry>
        </mxCell>
        <mxCell id="57VDPEn4nayjaTuC1rr9-86" value="choose experience&lt;br&gt;job seekers want to &lt;br&gt;put in resume" style="html=1;verticalAlign=bottom;endArrow=open;dashed=1;endSize=8;rounded=0;entryX=-0.2;entryY=0.108;entryDx=0;entryDy=0;entryPerimeter=0;" edge="1" parent="1" target="57VDPEn4nayjaTuC1rr9-87">
          <mxGeometry relative="1" as="geometry">
            <mxPoint x="437.5" y="393" as="sourcePoint" />
            <mxPoint x="600" y="393" as="targetPoint" />
          </mxGeometry>
        </mxCell>
        <mxCell id="57VDPEn4nayjaTuC1rr9-90" value="" style="html=1;points=[];perimeter=orthogonalPerimeter;" vertex="1" parent="1">
          <mxGeometry x="611" y="439" width="10" height="40" as="geometry" />
        </mxCell>
        <mxCell id="57VDPEn4nayjaTuC1rr9-91" value="make commit and&amp;nbsp;&lt;br&gt;pull request to &lt;br&gt;job seekerr&#39;s repository" style="edgeStyle=orthogonalEdgeStyle;html=1;align=left;spacingLeft=2;endArrow=block;rounded=0;entryX=1;entryY=0;" edge="1" target="57VDPEn4nayjaTuC1rr9-90" parent="1">
          <mxGeometry relative="1" as="geometry">
            <mxPoint x="616" y="412" as="sourcePoint" />
            <Array as="points">
              <mxPoint x="646" y="412" />
            </Array>
          </mxGeometry>
        </mxCell>
      </root>
    </mxGraphModel>
  </diagram>
</mxfile>
